<svg xmlns="http://www.w3.org/2000/svg" width="540" height="540"><path fill="#FFF" d="M 0,0 H 540 V 540 H 0 Z" /><path fill="#f7af31" d="m 418.791,248.309 c 0,-9.168 -5.13,-16.235 -11.022,-16.235 -5.874,0 -11.022,7.085 -11.022,16.235 0,7.922 3.847,12.812 8.68,14.003 -0.037,1.915 -0.372,19.99 -2.193,39.85 0,0 1.598,0.67 4.647,0.67 3.048,0 5.185,-0.67 5.185,-0.67 -1.765,-17.554 -2.527,-34.495 -2.713,-39.088 0,-0.037 -0.558,0.167 -1.339,-0.056 -0.65,-0.167 -1.003,-0.427 -0.966,-0.427 h 0.111 c 0.632,0 1.302,-0.13 1.729,-0.224 0.019,0 0.037,0 0.056,-0.018 0.241,-0.056 0.39,-0.093 0.39,-0.093 4.74,-1.302 8.457,-6.156 8.457,-13.947 z"/><path fill="#f15025" d="m 130.91,276.965 c -5.983,1.544 -10.816,4.166 -10.816,11.102 0,6.713 4.554,9.168 9.554,9.168 3.866,0 8.085,-1.432 11.134,-5.114 v 4.296 h 10.185 v -23.766 c 0,-9.056 -4.684,-12.33 -13.959,-12.33 -4.962,0 -9.405,0.968 -13.475,2.232 l -0.707,8.87 c 3.96,-1.152 7.51,-2.026 11.227,-2.026 4.461,0 6.729,1.246 6.729,4.76 v 0.372 l -9.87,2.436 z m 3.346,13.017 c -1.988,0 -3.605,-0.967 -3.605,-3.365 0,-2.901 2.379,-4.575 7.453,-5.988 l 2.658,-0.781 v 7.308 c -2.007,1.748 -4.48,2.826 -6.506,2.826 z m 22.045,-40.967 v 47.402 h 10.205 v -48.555 z m 15.911,0 v 47.402 h 10.223 v -48.555 z m 15.929,12.813 v 34.57 h 10.223 v -21.013 c 3.7,-2.362 8.16,-3.013 11.989,-2.827 l 0.54,-12.143 c -6.655,0 -10.038,2.715 -12.529,11.752 v -11.53 z m 57.119,9.093 -0.65,-1.599 c -2.027,-5.04 -6.692,-9.056 -14.369,-9.02 -8.959,0 -18.14,5.45 -18.14,18.337 0,11.213 6.82,18.577 18.735,18.577 6.524,0 11.208,-2.008 13.848,-3.756 l 0.669,-10.135 c -4.09,3.106 -9.573,4.203 -13.327,4.203 -3.699,0 -6.301,-1.097 -7.956,-2.901 l 19.108,-8.908 c 2.026,-0.911 2.937,-2.752 2.082,-4.798 z m -23.513,6.825 c 0,-6.564 4.07,-9.39 8.662,-9.39 3.271,0 4.888,1.524 5.91,3.477 l -14.553,6.787 c 0,-0.279 -0.019,-0.576 -0.019,-0.874 z m 45.279,-8.349 c 2.75,0 5.483,0.91 7.453,1.934 v -9.69 c -2.992,-0.93 -6.524,-1.32 -9.293,-1.32 -11.599,0 -17.64,7.252 -17.64,18.447 0,11.176 6.041,18.447 17.658,18.447 2.863,0 6.599,-0.539 10.112,-1.86 v -9.574 c -2.547,1.171 -5.465,2.12 -8.272,2.12 -5.353,0 -9.256,-2.901 -9.256,-9.168 0,-6.23 3.903,-9.335 9.238,-9.335 z m 12.509,27.02 h 10.223 v -35.742 l -10.223,1.153 z m 5.075,-50.6 c -4.09,0 -6.618,2.473 -6.618,5.913 0,3.496 2.51,5.97 6.617,5.97 4.09,0 6.487,-2.474 6.487,-5.97 0.019,-3.44 -2.397,-5.913 -6.487,-5.913 z m 10.854,16.011 v 45.635 h 10.223 v -11.046 c 1.562,0.483 3.402,0.818 5.52,0.818 10.187,0 17.92,-6.825 17.92,-19.954 0,-11.771 -5.391,-16.96 -12.77,-16.96 -4.833,0 -8.216,2.195 -10.67,4.65 v -4.315 z m 15.52,6.88 c 5.763,0 7.473,4.575 7.436,9.633 0.018,6.825 -2.956,10.805 -9.294,10.805 -1.245,0 -2.398,-0.13 -3.439,-0.354 v -18.484 c 1.469,-0.93 3.179,-1.6 5.298,-1.6 z m 53.886,2.213 -0.651,-1.599 c -2.026,-5.04 -6.691,-9.056 -14.368,-9.02 -8.96,0 -18.141,5.45 -18.141,18.337 0,11.213 6.821,18.577 18.736,18.577 6.524,0 11.208,-2.008 13.847,-3.756 l 0.67,-10.135 c -4.09,3.106 -9.573,4.203 -13.328,4.203 -3.699,0 -6.3,-1.097 -7.955,-2.901 l 19.108,-8.908 c 2.026,-0.911 2.937,-2.752 2.082,-4.798 z m -23.513,6.825 c 0,-6.564 4.07,-9.39 8.661,-9.39 3.272,0 4.889,1.524 5.911,3.477 l -14.554,6.787 c 0,-0.279 -0.018,-0.576 -0.018,-0.874 z m 36.226,-6.453 c 0,-2.213 3.03,-2.77 5.948,-2.77 2.863,0 6.32,0.464 10.465,2.305 l -0.279,-8.517 c -2.584,-1.152 -6.04,-1.99 -10.465,-1.99 -11.32,0 -15.018,5.45 -15.018,11.27 0,14.17 17.51,8.443 17.51,14.189 0,2.343 -2.547,2.882 -5.038,2.882 -5,0 -9.182,-1.432 -12.528,-3.347 l -0.595,9 c 3.513,1.786 8.16,2.901 13.104,2.901 10.874,0 15.038,-5.337 15.038,-12.236 0.037,-13.705 -18.142,-8.35 -18.142,-13.687 z"/></svg>
